<?xml version="1.0" encoding="UTF-8" standalone="no"?>
<!DOCTYPE svg PUBLIC "-//W3C//DTD SVG 1.1//EN" "http://www.w3.org/Graphics/SVG/1.1/DTD/svg11.dtd">
<svg width="100%" height="100%" viewBox="0 0 1080 1080" version="1.1" xmlns="http://www.w3.org/2000/svg" xmlns:xlink="http://www.w3.org/1999/xlink" xml:space="preserve" xmlns:serif="http://www.serif.com/" style="fill-rule:evenodd;clip-rule:evenodd;stroke-linejoin:round;stroke-miterlimit:2;">
    <g transform="matrix(1.09914,0.000361129,-0.000361431,1.10006,339.469,989.02)">
        <path d="M505.522,-399.493C521.028,-399.493 531.289,-395.16 536.305,-386.495C541.322,-377.831 543.83,-368.71 543.83,-359.133C543.83,-357.765 542.804,-355.713 540.752,-352.976C538.699,-350.24 536.191,-347.504 533.227,-344.768C530.263,-342.031 527.298,-339.637 524.334,-337.585C521.37,-335.533 518.976,-334.507 517.151,-334.507L505.522,-334.507C502.33,-334.507 499.594,-334.279 497.314,-333.823C491.385,-332.911 487.281,-331.314 485,-329.034C478.16,-329.034 473.029,-327.552 469.609,-324.588C466.189,-321.623 463.566,-317.861 461.742,-313.301C459.918,-308.74 458.892,-303.724 458.664,-298.251C458.436,-292.779 458.322,-287.762 458.322,-283.202L458.322,-188.117C458.322,-183.101 459.006,-179.224 460.374,-176.488C461.742,-173.752 462.882,-171.244 463.795,-168.963C466.075,-166.227 467.329,-163.491 467.557,-160.755C467.785,-158.018 467.899,-155.054 467.899,-151.862L465.847,-129.288C465.847,-122.903 466.759,-116.633 468.583,-110.476C470.407,-104.32 471.319,-99.873 471.319,-97.137L479.528,-77.983L479.528,-58.829C479.528,-50.621 483.518,-44.92 491.499,-41.728C499.48,-38.536 508.145,-35.913 517.493,-33.861C526.842,-31.809 535.507,-29.529 543.488,-27.02C551.469,-24.512 555.459,-19.838 555.459,-12.997C555.459,0.684 549.074,7.525 536.305,7.525L511.679,7.525C508.487,7.525 505.066,7.639 501.418,7.867C497.77,8.095 494.121,9.349 490.473,11.629L433.696,7.525L401.545,7.525C400.177,7.525 396.984,7.753 391.968,8.209C386.951,8.665 381.593,9.121 375.892,9.577C370.192,10.033 364.833,10.489 359.817,10.945C354.801,11.401 351.608,11.629 350.24,11.629C343.399,11.629 338.497,11.173 335.533,10.261C332.568,9.349 331.086,5.929 331.086,0C331.086,-6.385 332.797,-13.339 336.217,-20.864C339.637,-28.389 346.136,-32.151 355.713,-32.151L395.388,-32.151C398.581,-32.151 401.203,-33.177 403.255,-35.229C405.307,-37.281 406.675,-39.79 407.359,-42.754C408.043,-45.718 408.499,-48.682 408.727,-51.647C408.955,-54.611 409.07,-57.005 409.07,-58.829C409.07,-64.758 407.815,-71.827 405.307,-80.035C402.799,-88.244 401.545,-93.945 401.545,-97.137L401.545,-161.439C401.545,-163.263 401.203,-166.341 400.519,-170.674C399.835,-175.006 398.809,-179.338 397.44,-183.671C396.072,-188.003 394.59,-191.766 392.994,-194.958C391.398,-198.15 389.688,-199.746 387.864,-199.746C386.951,-199.746 385.013,-197.808 382.049,-193.932C379.085,-190.055 375.664,-185.039 371.788,-178.882C367.912,-172.726 363.579,-165.885 358.791,-158.361C354.002,-150.836 349.442,-143.425 345.11,-136.128C340.777,-128.832 336.787,-122.219 333.139,-116.291C329.49,-110.362 326.754,-105.802 324.93,-102.609C321.281,-99.873 318.203,-96.225 315.695,-91.664C313.187,-87.104 311.021,-82.43 309.196,-77.641C307.372,-72.853 305.776,-68.064 304.408,-63.276C303.04,-58.487 301.672,-54.497 300.304,-51.305C296.655,-44.92 293.121,-39.334 289.701,-34.545C286.28,-29.757 283.43,-25.766 281.15,-22.574C277.501,-14.821 274.993,-10.375 273.625,-9.235C272.257,-8.095 269.749,-7.525 266.1,-7.525C260.628,-7.525 257.094,-9.349 255.497,-12.997C253.901,-16.646 251.051,-21.89 246.947,-28.731L241.474,-70.458C238.282,-78.667 234.634,-87.104 230.529,-95.769C226.425,-104.434 222.662,-113.212 219.242,-122.105C215.822,-130.998 212.972,-139.777 210.691,-148.442C208.411,-157.106 207.271,-165.315 207.271,-173.068L207.271,-180.593C207.271,-182.417 206.587,-185.495 205.219,-189.827C203.851,-194.16 202.255,-198.492 200.43,-202.825C198.606,-207.157 196.554,-210.919 194.274,-214.112C191.994,-217.304 189.941,-218.9 188.117,-218.9C186.749,-218.9 184.925,-216.848 182.645,-212.744C180.365,-208.639 178.198,-203.851 176.146,-198.378C174.094,-192.906 172.384,-187.319 171.016,-181.619C169.648,-175.918 168.963,-171.7 168.963,-168.963L168.963,-121.763C167.139,-109.906 165.315,-99.189 163.491,-89.612C162.123,-81.403 160.869,-73.423 159.729,-65.67C158.589,-57.917 158.018,-53.129 158.018,-51.305C158.018,-38.536 160.299,-29.871 164.859,-25.31C169.42,-20.75 174.436,-17.786 179.908,-16.418C185.381,-15.049 190.397,-13.681 194.958,-12.313C199.518,-10.945 201.799,-6.841 201.799,0C201.799,5.016 200.772,8.779 198.72,11.287C196.668,13.795 194.274,15.619 191.538,16.76C188.801,17.9 186.065,18.584 183.329,18.812C180.593,19.04 178.54,19.154 177.172,19.154L150.494,19.154L85.508,7.525L60.882,7.525C59.513,8.437 57.917,9.121 56.093,9.577C53.357,10.945 50.393,11.629 47.2,11.629L34.203,11.629C32.835,11.629 30.783,11.401 28.047,10.945C25.31,10.489 22.574,9.691 19.838,8.551C17.102,7.411 14.707,6.157 12.655,4.788C10.603,3.42 9.577,1.824 9.577,0C9.577,-4.56 11.287,-8.551 14.707,-11.971C18.128,-15.391 22.004,-18.242 26.336,-20.522C30.669,-22.802 34.887,-24.398 38.992,-25.31C43.096,-26.222 45.832,-26.678 47.2,-26.678L60.882,-26.678C62.25,-26.678 64.986,-26.906 69.09,-27.363C73.195,-27.819 77.527,-28.503 82.088,-29.415C87.104,-30.327 92.805,-31.239 99.189,-32.151C102.381,-35.343 105.574,-40.93 108.766,-48.91C111.958,-56.891 114.695,-65.1 116.975,-73.537C119.255,-81.974 121.193,-89.726 122.789,-96.795C124.385,-103.864 125.183,-108.31 125.183,-110.134L125.183,-142.285C126.552,-143.653 127.692,-145.819 128.604,-148.784C129.516,-151.748 130.2,-154.826 130.656,-158.018C131.112,-161.667 131.34,-165.315 131.34,-168.963L131.34,-199.746C131.34,-201.57 131.682,-204.307 132.366,-207.955C133.05,-211.603 133.848,-215.252 134.76,-218.9C136.128,-223.004 137.497,-227.337 138.865,-231.897L138.865,-251.051C139.777,-253.787 140.689,-256.524 141.601,-259.26C142.513,-261.54 143.197,-264.048 143.653,-266.784C144.109,-269.521 144.337,-272.485 144.337,-275.677L144.337,-290.727C144.337,-292.095 143.653,-295.173 142.285,-299.961C140.917,-304.75 139.321,-309.652 137.497,-314.669C135.672,-320.597 133.62,-327.21 131.34,-334.507C129.06,-337.699 125.868,-340.663 121.763,-343.399C117.659,-346.136 113.782,-348.872 110.134,-351.608C107.398,-353.888 104.092,-356.055 100.215,-358.107C96.339,-360.159 93.261,-363.237 90.98,-367.342L90.98,-374.866C90.98,-377.603 92.12,-379.655 94.401,-381.023C96.681,-382.391 99.417,-383.531 102.609,-384.443C105.802,-385.355 109.678,-385.811 114.238,-385.811L131.34,-385.811C135.9,-385.811 139.207,-386.153 141.259,-386.837C143.311,-387.522 144.793,-388.434 145.705,-389.574C146.617,-390.714 147.302,-391.626 147.758,-392.31C148.214,-392.994 149.126,-393.336 150.494,-393.336L195.642,-393.336L214.796,-385.811C219.356,-373.954 224.259,-359.475 229.503,-342.373C234.748,-325.272 240.106,-307.144 245.579,-287.99C251.051,-268.837 256.41,-249.797 261.654,-230.871C266.898,-211.945 271.915,-194.958 276.703,-179.908C281.492,-164.859 285.71,-152.66 289.359,-143.311C293.007,-133.962 295.971,-129.288 298.251,-129.288C299.163,-131.568 300.304,-133.62 301.672,-135.444C302.584,-137.269 303.838,-139.207 305.434,-141.259C307.03,-143.311 308.512,-145.021 309.88,-146.389C316.721,-169.648 325.956,-193.818 337.585,-218.9C349.214,-243.982 359.589,-267.925 368.71,-290.727C368.71,-300.304 371.56,-308.626 377.261,-315.695C382.961,-322.764 389.004,-331.086 395.388,-340.663C396.756,-343.856 397.668,-348.074 398.124,-353.318C398.581,-358.563 399.379,-363.807 400.519,-369.052C401.659,-374.296 403.597,-379.199 406.333,-383.759C409.07,-388.32 413.63,-391.512 420.015,-393.336L446.693,-393.336L456.27,-387.864C462.654,-387.864 468.583,-388.434 474.055,-389.574C479.528,-390.714 484.772,-391.968 489.789,-393.336C494.805,-395.16 500.05,-397.212 505.522,-399.493Z" style="fill:rgb(54,54,54);fill-rule:nonzero;"/>
    </g>
    <g transform="matrix(1.09914,-1.05847e-05,1.05847e-05,1.09914,119.474,499.103)">
        <path d="M505.522,-399.493C521.028,-399.493 531.289,-395.16 536.305,-386.495C541.322,-377.831 543.83,-368.71 543.83,-359.133C543.83,-357.765 542.804,-355.713 540.752,-352.976C538.699,-350.24 536.191,-347.504 533.227,-344.768C530.263,-342.031 527.298,-339.637 524.334,-337.585C521.37,-335.533 518.976,-334.507 517.151,-334.507L505.522,-334.507C502.33,-334.507 499.594,-334.279 497.314,-333.823C491.385,-332.911 487.281,-331.314 485,-329.034C478.16,-329.034 473.029,-327.552 469.609,-324.588C466.189,-321.623 463.566,-317.861 461.742,-313.301C459.918,-308.74 458.892,-303.724 458.664,-298.251C458.436,-292.779 458.322,-287.762 458.322,-283.202L458.322,-188.117C458.322,-183.101 459.006,-179.224 460.374,-176.488C461.742,-173.752 462.882,-171.244 463.795,-168.963C466.075,-166.227 467.329,-163.491 467.557,-160.755C467.785,-158.018 467.899,-155.054 467.899,-151.862L465.847,-129.288C465.847,-122.903 466.759,-116.633 468.583,-110.476C470.407,-104.32 471.319,-99.873 471.319,-97.137L479.528,-77.983L479.528,-58.829C479.528,-50.621 483.518,-44.92 491.499,-41.728C499.48,-38.536 508.145,-35.913 517.493,-33.861C526.842,-31.809 535.507,-29.529 543.488,-27.02C551.469,-24.512 555.459,-19.838 555.459,-12.997C555.459,0.684 549.074,7.525 536.305,7.525L511.679,7.525C508.487,7.525 505.066,7.639 501.418,7.867C497.77,8.095 494.121,9.349 490.473,11.629L433.696,7.525L401.545,7.525C400.177,7.525 396.984,7.753 391.968,8.209C386.951,8.665 381.593,9.121 375.892,9.577C370.192,10.033 364.833,10.489 359.817,10.945C354.801,11.401 351.608,11.629 350.24,11.629C343.399,11.629 338.497,11.173 335.533,10.261C332.568,9.349 331.086,5.929 331.086,0C331.086,-6.385 332.797,-13.339 336.217,-20.864C339.637,-28.389 346.136,-32.151 355.713,-32.151L395.388,-32.151C398.581,-32.151 401.203,-33.177 403.255,-35.229C405.307,-37.281 406.675,-39.79 407.359,-42.754C408.043,-45.718 408.499,-48.682 408.727,-51.647C408.955,-54.611 409.07,-57.005 409.07,-58.829C409.07,-64.758 407.815,-71.827 405.307,-80.035C402.799,-88.244 401.545,-93.945 401.545,-97.137L401.545,-161.439C401.545,-163.263 401.203,-166.341 400.519,-170.674C399.835,-175.006 398.809,-179.338 397.44,-183.671C396.072,-188.003 394.59,-191.766 392.994,-194.958C391.398,-198.15 389.688,-199.746 387.864,-199.746C386.951,-199.746 385.013,-197.808 382.049,-193.932C379.085,-190.055 375.664,-185.039 371.788,-178.882C367.912,-172.726 363.579,-165.885 358.791,-158.361C354.002,-150.836 349.442,-143.425 345.11,-136.128C340.777,-128.832 336.787,-122.219 333.139,-116.291C329.49,-110.362 326.754,-105.802 324.93,-102.609C321.281,-99.873 318.203,-96.225 315.695,-91.664C313.187,-87.104 311.021,-82.43 309.196,-77.641C307.372,-72.853 305.776,-68.064 304.408,-63.276C303.04,-58.487 301.672,-54.497 300.304,-51.305C296.655,-44.92 293.121,-39.334 289.701,-34.545C286.28,-29.757 283.43,-25.766 281.15,-22.574C277.501,-14.821 274.993,-10.375 273.625,-9.235C272.257,-8.095 269.749,-7.525 266.1,-7.525C260.628,-7.525 257.094,-9.349 255.497,-12.997C253.901,-16.646 251.051,-21.89 246.947,-28.731L241.474,-70.458C238.282,-78.667 234.634,-87.104 230.529,-95.769C226.425,-104.434 222.662,-113.212 219.242,-122.105C215.822,-130.998 212.972,-139.777 210.691,-148.442C208.411,-157.106 207.271,-165.315 207.271,-173.068L207.271,-180.593C207.271,-182.417 206.587,-185.495 205.219,-189.827C203.851,-194.16 202.255,-198.492 200.43,-202.825C198.606,-207.157 196.554,-210.919 194.274,-214.112C191.994,-217.304 189.941,-218.9 188.117,-218.9C186.749,-218.9 184.925,-216.848 182.645,-212.744C180.365,-208.639 178.198,-203.851 176.146,-198.378C174.094,-192.906 172.384,-187.319 171.016,-181.619C169.648,-175.918 168.963,-171.7 168.963,-168.963L168.963,-121.763C167.139,-109.906 165.315,-99.189 163.491,-89.612C162.123,-81.403 160.869,-73.423 159.729,-65.67C158.589,-57.917 158.018,-53.129 158.018,-51.305C158.018,-38.536 160.299,-29.871 164.859,-25.31C169.42,-20.75 174.436,-17.786 179.908,-16.418C185.381,-15.049 190.397,-13.681 194.958,-12.313C199.518,-10.945 201.799,-6.841 201.799,0C201.799,5.016 200.772,8.779 198.72,11.287C196.668,13.795 194.274,15.619 191.538,16.76C188.801,17.9 186.065,18.584 183.329,18.812C180.593,19.04 178.54,19.154 177.172,19.154L150.494,19.154L85.508,7.525L60.882,7.525C59.513,8.437 57.917,9.121 56.093,9.577C53.357,10.945 50.393,11.629 47.2,11.629L34.203,11.629C32.835,11.629 30.783,11.401 28.047,10.945C25.31,10.489 22.574,9.691 19.838,8.551C17.102,7.411 14.707,6.157 12.655,4.788C10.603,3.42 9.577,1.824 9.577,0C9.577,-4.56 11.287,-8.551 14.707,-11.971C18.128,-15.391 22.004,-18.242 26.336,-20.522C30.669,-22.802 34.887,-24.398 38.992,-25.31C43.096,-26.222 45.832,-26.678 47.2,-26.678L60.882,-26.678C62.25,-26.678 64.986,-26.906 69.09,-27.363C73.195,-27.819 77.527,-28.503 82.088,-29.415C87.104,-30.327 92.805,-31.239 99.189,-32.151C102.381,-35.343 105.574,-40.93 108.766,-48.91C111.958,-56.891 114.695,-65.1 116.975,-73.537C119.255,-81.974 121.193,-89.726 122.789,-96.795C124.385,-103.864 125.183,-108.31 125.183,-110.134L125.183,-142.285C126.552,-143.653 127.692,-145.819 128.604,-148.784C129.516,-151.748 130.2,-154.826 130.656,-158.018C131.112,-161.667 131.34,-165.315 131.34,-168.963L131.34,-199.746C131.34,-201.57 131.682,-204.307 132.366,-207.955C133.05,-211.603 133.848,-215.252 134.76,-218.9C136.128,-223.004 137.497,-227.337 138.865,-231.897L138.865,-251.051C139.777,-253.787 140.689,-256.524 141.601,-259.26C142.513,-261.54 143.197,-264.048 143.653,-266.784C144.109,-269.521 144.337,-272.485 144.337,-275.677L144.337,-290.727C144.337,-292.095 143.653,-295.173 142.285,-299.961C140.917,-304.75 139.321,-309.652 137.497,-314.669C135.672,-320.597 133.62,-327.21 131.34,-334.507C129.06,-337.699 125.868,-340.663 121.763,-343.399C117.659,-346.136 113.782,-348.872 110.134,-351.608C107.398,-353.888 104.092,-356.055 100.215,-358.107C96.339,-360.159 93.261,-363.237 90.98,-367.342L90.98,-374.866C90.98,-377.603 92.12,-379.655 94.401,-381.023C96.681,-382.391 99.417,-383.531 102.609,-384.443C105.802,-385.355 109.678,-385.811 114.238,-385.811L131.34,-385.811C135.9,-385.811 139.207,-386.153 141.259,-386.837C143.311,-387.522 144.793,-388.434 145.705,-389.574C146.617,-390.714 147.302,-391.626 147.758,-392.31C148.214,-392.994 149.126,-393.336 150.494,-393.336L195.642,-393.336L214.796,-385.811C219.356,-373.954 224.259,-359.475 229.503,-342.373C234.748,-325.272 240.106,-307.144 245.579,-287.99C251.051,-268.837 256.41,-249.797 261.654,-230.871C266.898,-211.945 271.915,-194.958 276.703,-179.908C281.492,-164.859 285.71,-152.66 289.359,-143.311C293.007,-133.962 295.971,-129.288 298.251,-129.288C299.163,-131.568 300.304,-133.62 301.672,-135.444C302.584,-137.269 303.838,-139.207 305.434,-141.259C307.03,-143.311 308.512,-145.021 309.88,-146.389C316.721,-169.648 325.956,-193.818 337.585,-218.9C349.214,-243.982 359.589,-267.925 368.71,-290.727C368.71,-300.304 371.56,-308.626 377.261,-315.695C382.961,-322.764 389.004,-331.086 395.388,-340.663C396.756,-343.856 397.668,-348.074 398.124,-353.318C398.581,-358.563 399.379,-363.807 400.519,-369.052C401.659,-374.296 403.597,-379.199 406.333,-383.759C409.07,-388.32 413.63,-391.512 420.015,-393.336L446.693,-393.336L456.27,-387.864C462.654,-387.864 468.583,-388.434 474.055,-389.574C479.528,-390.714 484.772,-391.968 489.789,-393.336C494.805,-395.16 500.05,-397.212 505.522,-399.493Z" style="fill:rgb(54,53,53);fill-rule:nonzero;"/>
    </g>
</svg>
