<?xml version="1.0" encoding="UTF-8" standalone="no"?>
<!DOCTYPE svg PUBLIC "-//W3C//DTD SVG 1.1//EN" "http://www.w3.org/Graphics/SVG/1.1/DTD/svg11.dtd">
<svg width="100%" height="100%" viewBox="0 0 1080 1080" version="1.1" xmlns="http://www.w3.org/2000/svg" xmlns:xlink="http://www.w3.org/1999/xlink" xml:space="preserve" xmlns:serif="http://www.serif.com/" style="fill-rule:evenodd;clip-rule:evenodd;stroke-linejoin:round;stroke-miterlimit:2;">
    <g transform="matrix(1.13578,0.000373166,-0.000373478,1.13673,369.123,993.925)">
        <path d="M505.522,-399.493C521.028,-399.493 531.289,-395.16 536.305,-386.495C541.322,-377.831 543.83,-368.71 543.83,-359.133C543.83,-357.765 542.804,-355.713 540.752,-352.976C538.699,-350.24 536.191,-347.504 533.227,-344.768C530.263,-342.031 527.298,-339.637 524.334,-337.585C521.37,-335.533 518.976,-334.507 517.151,-334.507L505.522,-334.507C502.33,-334.507 499.594,-334.279 497.314,-333.823C491.385,-332.911 487.281,-331.314 485,-329.034C478.16,-329.034 473.029,-327.552 469.609,-324.588C466.189,-321.623 463.566,-317.861 461.742,-313.301C459.918,-308.74 458.892,-303.724 458.664,-298.251C458.436,-292.779 458.322,-287.762 458.322,-283.202L458.322,-188.117C458.322,-183.101 459.006,-179.224 460.374,-176.488C461.742,-173.752 462.882,-171.244 463.795,-168.963C466.075,-166.227 467.329,-163.491 467.557,-160.755C467.785,-158.018 467.899,-155.054 467.899,-151.862L465.847,-129.288C465.847,-122.903 466.759,-116.633 468.583,-110.476C470.407,-104.32 471.319,-99.873 471.319,-97.137L479.528,-77.983L479.528,-58.829C479.528,-50.621 483.518,-44.92 491.499,-41.728C499.48,-38.536 508.145,-35.913 517.493,-33.861C526.842,-31.809 535.507,-29.529 543.488,-27.02C551.469,-24.512 555.459,-19.838 555.459,-12.997C555.459,0.684 549.074,7.525 536.305,7.525L511.679,7.525C508.487,7.525 505.066,7.639 501.418,7.867C497.77,8.095 494.121,9.349 490.473,11.629L433.696,7.525L401.545,7.525C400.177,7.525 396.984,7.753 391.968,8.209C386.951,8.665 381.593,9.121 375.892,9.577C370.192,10.033 364.833,10.489 359.817,10.945C354.801,11.401 351.608,11.629 350.24,11.629C343.399,11.629 338.497,11.173 335.533,10.261C332.568,9.349 331.086,5.929 331.086,0C331.086,-6.385 332.797,-13.339 336.217,-20.864C339.637,-28.389 346.136,-32.151 355.713,-32.151L395.388,-32.151C398.581,-32.151 401.203,-33.177 403.255,-35.229C405.307,-37.281 406.675,-39.79 407.359,-42.754C408.043,-45.718 408.499,-48.682 408.727,-51.647C408.955,-54.611 409.07,-57.005 409.07,-58.829C409.07,-64.758 407.815,-71.827 405.307,-80.035C402.799,-88.244 401.545,-93.945 401.545,-97.137L401.545,-161.439C401.545,-163.263 401.203,-166.341 400.519,-170.674C399.835,-175.006 398.809,-179.338 397.44,-183.671C396.072,-188.003 394.59,-191.766 392.994,-194.958C391.398,-198.15 389.688,-199.746 387.864,-199.746C386.951,-199.746 385.013,-197.808 382.049,-193.932C379.085,-190.055 375.664,-185.039 371.788,-178.882C367.912,-172.726 363.579,-165.885 358.791,-158.361C354.002,-150.836 349.442,-143.425 345.11,-136.128C340.777,-128.832 336.787,-122.219 333.139,-116.291C329.49,-110.362 326.754,-105.802 324.93,-102.609C321.281,-99.873 318.203,-96.225 315.695,-91.664C313.187,-87.104 311.021,-82.43 309.196,-77.641C307.372,-72.853 305.776,-68.064 304.408,-63.276C303.04,-58.487 301.672,-54.497 300.304,-51.305C296.655,-44.92 293.121,-39.334 289.701,-34.545C286.28,-29.757 283.43,-25.766 281.15,-22.574C277.501,-14.821 274.993,-10.375 273.625,-9.235C272.257,-8.095 269.749,-7.525 266.1,-7.525C260.628,-7.525 257.094,-9.349 255.497,-12.997C253.901,-16.646 251.051,-21.89 246.947,-28.731L241.474,-70.458C238.282,-78.667 234.634,-87.104 230.529,-95.769C226.425,-104.434 222.662,-113.212 219.242,-122.105C215.822,-130.998 212.972,-139.777 210.691,-148.442C208.411,-157.106 207.271,-165.315 207.271,-173.068L207.271,-180.593C207.271,-182.417 206.587,-185.495 205.219,-189.827C203.851,-194.16 202.255,-198.492 200.43,-202.825C198.606,-207.157 196.554,-210.919 194.274,-214.112C191.994,-217.304 189.941,-218.9 188.117,-218.9C186.749,-218.9 184.925,-216.848 182.645,-212.744C180.365,-208.639 178.198,-203.851 176.146,-198.378C174.094,-192.906 172.384,-187.319 171.016,-181.619C169.648,-175.918 168.963,-171.7 168.963,-168.963L168.963,-121.763C167.139,-109.906 165.315,-99.189 163.491,-89.612C162.123,-81.403 160.869,-73.423 159.729,-65.67C158.589,-57.917 158.018,-53.129 158.018,-51.305C158.018,-38.536 160.299,-29.871 164.859,-25.31C169.42,-20.75 174.436,-17.786 179.908,-16.418C185.381,-15.049 190.397,-13.681 194.958,-12.313C199.518,-10.945 201.799,-6.841 201.799,0C201.799,5.016 200.772,8.779 198.72,11.287C196.668,13.795 194.274,15.619 191.538,16.76C188.801,17.9 186.065,18.584 183.329,18.812C180.593,19.04 178.54,19.154 177.172,19.154L150.494,19.154L85.508,7.525L60.882,7.525C59.513,8.437 57.917,9.121 56.093,9.577C53.357,10.945 50.393,11.629 47.2,11.629L34.203,11.629C32.835,11.629 30.783,11.401 28.047,10.945C25.31,10.489 22.574,9.691 19.838,8.551C17.102,7.411 14.707,6.157 12.655,4.788C10.603,3.42 9.577,1.824 9.577,0C9.577,-4.56 11.287,-8.551 14.707,-11.971C18.128,-15.391 22.004,-18.242 26.336,-20.522C30.669,-22.802 34.887,-24.398 38.992,-25.31C43.096,-26.222 45.832,-26.678 47.2,-26.678L60.882,-26.678C62.25,-26.678 64.986,-26.906 69.09,-27.363C73.195,-27.819 77.527,-28.503 82.088,-29.415C87.104,-30.327 92.805,-31.239 99.189,-32.151C102.381,-35.343 105.574,-40.93 108.766,-48.91C111.958,-56.891 114.695,-65.1 116.975,-73.537C119.255,-81.974 121.193,-89.726 122.789,-96.795C124.385,-103.864 125.183,-108.31 125.183,-110.134L125.183,-142.285C126.552,-143.653 127.692,-145.819 128.604,-148.784C129.516,-151.748 130.2,-154.826 130.656,-158.018C131.112,-161.667 131.34,-165.315 131.34,-168.963L131.34,-199.746C131.34,-201.57 131.682,-204.307 132.366,-207.955C133.05,-211.603 133.848,-215.252 134.76,-218.9C136.128,-223.004 137.497,-227.337 138.865,-231.897L138.865,-251.051C139.777,-253.787 140.689,-256.524 141.601,-259.26C142.513,-261.54 143.197,-264.048 143.653,-266.784C144.109,-269.521 144.337,-272.485 144.337,-275.677L144.337,-290.727C144.337,-292.095 143.653,-295.173 142.285,-299.961C140.917,-304.75 139.321,-309.652 137.497,-314.669C135.672,-320.597 133.62,-327.21 131.34,-334.507C129.06,-337.699 125.868,-340.663 121.763,-343.399C117.659,-346.136 113.782,-348.872 110.134,-351.608C107.398,-353.888 104.092,-356.055 100.215,-358.107C96.339,-360.159 93.261,-363.237 90.98,-367.342L90.98,-374.866C90.98,-377.603 92.12,-379.655 94.401,-381.023C96.681,-382.391 99.417,-383.531 102.609,-384.443C105.802,-385.355 109.678,-385.811 114.238,-385.811L131.34,-385.811C135.9,-385.811 139.207,-386.153 141.259,-386.837C143.311,-387.522 144.793,-388.434 145.705,-389.574C146.617,-390.714 147.302,-391.626 147.758,-392.31C148.214,-392.994 149.126,-393.336 150.494,-393.336L195.642,-393.336L214.796,-385.811C219.356,-373.954 224.259,-359.475 229.503,-342.373C234.748,-325.272 240.106,-307.144 245.579,-287.99C251.051,-268.837 256.41,-249.797 261.654,-230.871C266.898,-211.945 271.915,-194.958 276.703,-179.908C281.492,-164.859 285.71,-152.66 289.359,-143.311C293.007,-133.962 295.971,-129.288 298.251,-129.288C299.163,-131.568 300.304,-133.62 301.672,-135.444C302.584,-137.269 303.838,-139.207 305.434,-141.259C307.03,-143.311 308.512,-145.021 309.88,-146.389C316.721,-169.648 325.956,-193.818 337.585,-218.9C349.214,-243.982 359.589,-267.925 368.71,-290.727C368.71,-300.304 371.56,-308.626 377.261,-315.695C382.961,-322.764 389.004,-331.086 395.388,-340.663C396.756,-343.856 397.668,-348.074 398.124,-353.318C398.581,-358.563 399.379,-363.807 400.519,-369.052C401.659,-374.296 403.597,-379.199 406.333,-383.759C409.07,-388.32 413.63,-391.512 420.015,-393.336L446.693,-393.336L456.27,-387.864C462.654,-387.864 468.583,-388.434 474.055,-389.574C479.528,-390.714 484.772,-391.968 489.789,-393.336C494.805,-395.16 500.05,-397.212 505.522,-399.493Z" style="fill:rgb(54,54,54);fill-rule:nonzero;"/>
    </g>
    <g transform="matrix(1.09914,-1.05847e-05,1.05847e-05,1.09914,69.4738,499.103)">
        <path d="M505.522,-399.493C521.028,-399.493 531.289,-395.16 536.305,-386.495C541.322,-377.831 543.83,-368.71 543.83,-359.133C543.83,-357.765 542.804,-355.713 540.752,-352.976C538.699,-350.24 536.191,-347.504 533.227,-344.768C530.263,-342.031 527.298,-339.637 524.334,-337.585C521.37,-335.533 518.976,-334.507 517.151,-334.507L505.522,-334.507C502.33,-334.507 499.594,-334.279 497.314,-333.823C491.385,-332.911 487.281,-331.314 485,-329.034C478.16,-329.034 473.029,-327.552 469.609,-324.588C466.189,-321.623 463.566,-317.861 461.742,-313.301C459.918,-308.74 458.892,-303.724 458.664,-298.251C458.436,-292.779 458.322,-287.762 458.322,-283.202L458.322,-188.117C458.322,-183.101 459.006,-179.224 460.374,-176.488C461.742,-173.752 462.882,-171.244 463.795,-168.963C466.075,-166.227 467.329,-163.491 467.557,-160.755C467.785,-158.018 467.899,-155.054 467.899,-151.862L465.847,-129.288C465.847,-122.903 466.759,-116.633 468.583,-110.476C470.407,-104.32 471.319,-99.873 471.319,-97.137L479.528,-77.983L479.528,-58.829C479.528,-50.621 483.518,-44.92 491.499,-41.728C499.48,-38.536 508.145,-35.913 517.493,-33.861C526.842,-31.809 535.507,-29.529 543.488,-27.02C551.469,-24.512 555.459,-19.838 555.459,-12.997C555.459,0.684 549.074,7.525 536.305,7.525L511.679,7.525C508.487,7.525 505.066,7.639 501.418,7.867C497.77,8.095 494.121,9.349 490.473,11.629L433.696,7.525L401.545,7.525C400.177,7.525 396.984,7.753 391.968,8.209C386.951,8.665 381.593,9.121 375.892,9.577C370.192,10.033 364.833,10.489 359.817,10.945C354.801,11.401 351.608,11.629 350.24,11.629C343.399,11.629 338.497,11.173 335.533,10.261C332.568,9.349 331.086,5.929 331.086,0C331.086,-6.385 332.797,-13.339 336.217,-20.864C339.637,-28.389 346.136,-32.151 355.713,-32.151L395.388,-32.151C398.581,-32.151 401.203,-33.177 403.255,-35.229C405.307,-37.281 406.675,-39.79 407.359,-42.754C408.043,-45.718 408.499,-48.682 408.727,-51.647C408.955,-54.611 409.07,-57.005 409.07,-58.829C409.07,-64.758 407.815,-71.827 405.307,-80.035C402.799,-88.244 401.545,-93.945 401.545,-97.137L401.545,-161.439C401.545,-163.263 401.203,-166.341 400.519,-170.674C399.835,-175.006 398.809,-179.338 397.44,-183.671C396.072,-188.003 394.59,-191.766 392.994,-194.958C391.398,-198.15 389.688,-199.746 387.864,-199.746C386.951,-199.746 385.013,-197.808 382.049,-193.932C379.085,-190.055 375.664,-185.039 371.788,-178.882C367.912,-172.726 363.579,-165.885 358.791,-158.361C354.002,-150.836 349.442,-143.425 345.11,-136.128C340.777,-128.832 336.787,-122.219 333.139,-116.291C329.49,-110.362 326.754,-105.802 324.93,-102.609C321.281,-99.873 318.203,-96.225 315.695,-91.664C313.187,-87.104 311.021,-82.43 309.196,-77.641C307.372,-72.853 305.776,-68.064 304.408,-63.276C303.04,-58.487 301.672,-54.497 300.304,-51.305C296.655,-44.92 293.121,-39.334 289.701,-34.545C286.28,-29.757 283.43,-25.766 281.15,-22.574C277.501,-14.821 274.993,-10.375 273.625,-9.235C272.257,-8.095 269.749,-7.525 266.1,-7.525C260.628,-7.525 257.094,-9.349 255.497,-12.997C253.901,-16.646 251.051,-21.89 246.947,-28.731L241.474,-70.458C238.282,-78.667 234.634,-87.104 230.529,-95.769C226.425,-104.434 222.662,-113.212 219.242,-122.105C215.822,-130.998 212.972,-139.777 210.691,-148.442C208.411,-157.106 207.271,-165.315 207.271,-173.068L207.271,-180.593C207.271,-182.417 206.587,-185.495 205.219,-189.827C203.851,-194.16 202.255,-198.492 200.43,-202.825C198.606,-207.157 196.554,-210.919 194.274,-214.112C191.994,-217.304 189.941,-218.9 188.117,-218.9C186.749,-218.9 184.925,-216.848 182.645,-212.744C180.365,-208.639 178.198,-203.851 176.146,-198.378C174.094,-192.906 172.384,-187.319 171.016,-181.619C169.648,-175.918 168.963,-171.7 168.963,-168.963L168.963,-121.763C167.139,-109.906 165.315,-99.189 163.491,-89.612C162.123,-81.403 160.869,-73.423 159.729,-65.67C158.589,-57.917 158.018,-53.129 158.018,-51.305C158.018,-38.536 160.299,-29.871 164.859,-25.31C169.42,-20.75 174.436,-17.786 179.908,-16.418C185.381,-15.049 190.397,-13.681 194.958,-12.313C199.518,-10.945 201.799,-6.841 201.799,0C201.799,5.016 200.772,8.779 198.72,11.287C196.668,13.795 194.274,15.619 191.538,16.76C188.801,17.9 186.065,18.584 183.329,18.812C180.593,19.04 178.54,19.154 177.172,19.154L150.494,19.154L85.508,7.525L60.882,7.525C59.513,8.437 57.917,9.121 56.093,9.577C53.357,10.945 50.393,11.629 47.2,11.629L34.203,11.629C32.835,11.629 30.783,11.401 28.047,10.945C25.31,10.489 22.574,9.691 19.838,8.551C17.102,7.411 14.707,6.157 12.655,4.788C10.603,3.42 9.577,1.824 9.577,0C9.577,-4.56 11.287,-8.551 14.707,-11.971C18.128,-15.391 22.004,-18.242 26.336,-20.522C30.669,-22.802 34.887,-24.398 38.992,-25.31C43.096,-26.222 45.832,-26.678 47.2,-26.678L60.882,-26.678C62.25,-26.678 64.986,-26.906 69.09,-27.363C73.195,-27.819 77.527,-28.503 82.088,-29.415C87.104,-30.327 92.805,-31.239 99.189,-32.151C102.381,-35.343 105.574,-40.93 108.766,-48.91C111.958,-56.891 114.695,-65.1 116.975,-73.537C119.255,-81.974 121.193,-89.726 122.789,-96.795C124.385,-103.864 125.183,-108.31 125.183,-110.134L125.183,-142.285C126.552,-143.653 127.692,-145.819 128.604,-148.784C129.516,-151.748 130.2,-154.826 130.656,-158.018C131.112,-161.667 131.34,-165.315 131.34,-168.963L131.34,-199.746C131.34,-201.57 131.682,-204.307 132.366,-207.955C133.05,-211.603 133.848,-215.252 134.76,-218.9C136.128,-223.004 137.497,-227.337 138.865,-231.897L138.865,-251.051C139.777,-253.787 140.689,-256.524 141.601,-259.26C142.513,-261.54 143.197,-264.048 143.653,-266.784C144.109,-269.521 144.337,-272.485 144.337,-275.677L144.337,-290.727C144.337,-292.095 143.653,-295.173 142.285,-299.961C140.917,-304.75 139.321,-309.652 137.497,-314.669C135.672,-320.597 133.62,-327.21 131.34,-334.507C129.06,-337.699 125.868,-340.663 121.763,-343.399C117.659,-346.136 113.782,-348.872 110.134,-351.608C107.398,-353.888 104.092,-356.055 100.215,-358.107C96.339,-360.159 93.261,-363.237 90.98,-367.342L90.98,-374.866C90.98,-377.603 92.12,-379.655 94.401,-381.023C96.681,-382.391 99.417,-383.531 102.609,-384.443C105.802,-385.355 109.678,-385.811 114.238,-385.811L131.34,-385.811C135.9,-385.811 139.207,-386.153 141.259,-386.837C143.311,-387.522 144.793,-388.434 145.705,-389.574C146.617,-390.714 147.302,-391.626 147.758,-392.31C148.214,-392.994 149.126,-393.336 150.494,-393.336L195.642,-393.336L214.796,-385.811C219.356,-373.954 224.259,-359.475 229.503,-342.373C234.748,-325.272 240.106,-307.144 245.579,-287.99C251.051,-268.837 256.41,-249.797 261.654,-230.871C266.898,-211.945 271.915,-194.958 276.703,-179.908C281.492,-164.859 285.71,-152.66 289.359,-143.311C293.007,-133.962 295.971,-129.288 298.251,-129.288C299.163,-131.568 300.304,-133.62 301.672,-135.444C302.584,-137.269 303.838,-139.207 305.434,-141.259C307.03,-143.311 308.512,-145.021 309.88,-146.389C316.721,-169.648 325.956,-193.818 337.585,-218.9C349.214,-243.982 359.589,-267.925 368.71,-290.727C368.71,-300.304 371.56,-308.626 377.261,-315.695C382.961,-322.764 389.004,-331.086 395.388,-340.663C396.756,-343.856 397.668,-348.074 398.124,-353.318C398.581,-358.563 399.379,-363.807 400.519,-369.052C401.659,-374.296 403.597,-379.199 406.333,-383.759C409.07,-388.32 413.63,-391.512 420.015,-393.336L446.693,-393.336L456.27,-387.864C462.654,-387.864 468.583,-388.434 474.055,-389.574C479.528,-390.714 484.772,-391.968 489.789,-393.336C494.805,-395.16 500.05,-397.212 505.522,-399.493Z" style="fill:rgb(54,53,53);fill-rule:nonzero;"/>
    </g>
    <g transform="matrix(1.24693,0,0,1.01848,-88.1231,38.4078)">
        <path d="M216.976,602.832C213.904,602.832 210.928,600.528 208.048,595.92C205.168,591.312 205.648,583.44 209.488,572.304C210.64,568.848 212.464,565.392 214.96,561.936C217.456,558.48 220.432,555.12 223.888,551.856C227.344,548.592 230.8,545.616 234.256,542.928C237.712,540.24 240.976,537.936 244.048,536.016C247.504,533.712 251.728,530.736 256.72,527.088C261.712,523.44 266.896,519.792 272.272,516.144C277.648,512.496 283.024,509.52 288.4,507.216C293.776,504.912 298.576,503.952 302.8,504.336C308.944,505.104 315.472,506.352 322.384,508.08C329.296,509.808 335.92,512.112 342.256,514.992C348.592,517.872 354.064,521.52 358.672,525.936C363.28,530.352 366.544,536.016 368.464,542.928C368.848,544.848 370,548.016 371.92,552.432C373.84,556.848 375.76,561.648 377.68,566.832C379.6,572.016 381.136,577.008 382.288,581.808C383.44,586.608 383.44,590.16 382.288,592.464C380.368,594.768 379.696,597.36 380.272,600.24C380.848,603.12 381.52,606.096 382.288,609.168C383.056,612.24 383.44,615.216 383.44,618.096C383.44,620.976 382.096,623.568 379.408,625.872C368.272,635.856 358.384,645.072 349.744,653.52C341.104,661.968 330.256,669.648 317.2,676.56C317.584,678.096 316.336,679.44 313.456,680.592C310.576,681.744 309.328,683.28 309.712,685.2C310.864,689.808 308.944,693.744 303.952,697.008C298.96,700.272 293.392,703.44 287.248,706.512C281.104,709.584 275.536,712.848 270.544,716.304C265.552,719.76 263.632,724.176 264.784,729.552C265.552,732.624 266.8,734.928 268.528,736.464C270.256,738 271.504,740.88 272.272,745.104C273.04,747.792 273.808,750.288 274.576,752.592C275.344,754.896 276.112,757.584 276.88,760.656C277.648,762.96 278.704,764.88 280.048,766.416C281.392,767.952 282.448,770.256 283.216,773.328C284.368,778.704 282.064,783.12 276.304,786.576C270.544,790.032 264.784,792.336 259.024,793.488C253.648,794.64 248.656,794.448 244.048,792.912C239.44,791.376 235.216,788.976 231.376,785.712C227.536,782.448 224.272,778.512 221.584,773.904C218.896,769.296 216.976,764.496 215.824,759.504C214.288,751.824 215.248,745.104 218.704,739.344C222.16,733.584 226.576,728.112 231.952,722.928C237.328,717.744 243.088,712.56 249.232,707.376C255.376,702.192 260.368,696.336 264.208,689.808C267.664,684.816 270.64,680.976 273.136,678.288C275.632,675.6 278.224,673.2 280.912,671.088C283.6,668.976 286.576,666.864 289.84,664.752C293.104,662.64 297.04,659.856 301.648,656.4C306.256,653.328 310,648.528 312.88,642C315.76,635.472 320.08,630.672 325.84,627.6C331.6,624.144 334.96,619.632 335.92,614.064C336.88,608.496 336.496,602.928 334.768,597.36C333.04,591.792 330.16,586.8 326.128,582.384C322.096,577.968 317.968,575.184 313.744,574.032C310.288,574.416 307.312,573.84 304.816,572.304C302.32,570.768 299.824,569.04 297.328,567.12C294.832,565.2 292.336,563.376 289.84,561.648C287.344,559.92 284.368,558.864 280.912,558.48C270.16,557.712 261.424,559.632 254.704,564.24C247.984,568.848 242.32,574.128 237.712,580.08C233.104,586.032 229.36,591.408 226.48,596.208C223.6,601.008 220.432,603.216 216.976,602.832ZM174.928,890.256C174.928,884.112 176.848,878.256 180.688,872.688C184.528,867.12 189.04,862.224 194.224,858C199.408,853.776 204.688,850.32 210.064,847.632C215.44,844.944 219.664,843.6 222.736,843.6C226.576,843.6 229.744,844.464 232.24,846.192C234.736,847.92 237.136,849.936 239.44,852.24C241.744,854.544 244.144,857.136 246.64,860.016C249.136,862.896 251.92,865.488 254.992,867.792C258.064,870.096 261.52,872.112 265.36,873.84C269.2,875.568 271.12,878.736 271.12,883.344C271.12,888.336 270.16,892.464 268.24,895.728C266.32,898.992 263.728,901.872 260.464,904.368C257.2,906.864 253.648,909.36 249.808,911.856C245.968,914.352 242.32,917.136 238.864,920.208C236.176,922.128 234.064,924.72 232.528,927.984C230.992,931.248 229.456,934.32 227.92,937.2C226.384,940.08 224.56,942.576 222.448,944.688C220.336,946.8 217.36,947.856 213.52,947.856C210.064,947.856 207.28,946.8 205.168,944.688C203.056,942.576 201.424,939.792 200.272,936.336C199.12,932.88 198.064,929.04 197.104,924.816C196.144,920.592 195.088,916.368 193.936,912.144C193.552,910.224 192.304,908.496 190.192,906.96C188.08,905.424 185.872,903.792 183.568,902.064C181.264,900.336 179.248,898.512 177.52,896.592C175.792,894.672 174.928,892.56 174.928,890.256Z" style="fill:rgb(50,50,50);fill-rule:nonzero;"/>
    </g>
    <g transform="matrix(1.24693,0,0,1.01848,501.877,-443.574)">
        <path d="M216.976,602.832C213.904,602.832 210.928,600.528 208.048,595.92C205.168,591.312 205.648,583.44 209.488,572.304C210.64,568.848 212.464,565.392 214.96,561.936C217.456,558.48 220.432,555.12 223.888,551.856C227.344,548.592 230.8,545.616 234.256,542.928C237.712,540.24 240.976,537.936 244.048,536.016C247.504,533.712 251.728,530.736 256.72,527.088C261.712,523.44 266.896,519.792 272.272,516.144C277.648,512.496 283.024,509.52 288.4,507.216C293.776,504.912 298.576,503.952 302.8,504.336C308.944,505.104 315.472,506.352 322.384,508.08C329.296,509.808 335.92,512.112 342.256,514.992C348.592,517.872 354.064,521.52 358.672,525.936C363.28,530.352 366.544,536.016 368.464,542.928C368.848,544.848 370,548.016 371.92,552.432C373.84,556.848 375.76,561.648 377.68,566.832C379.6,572.016 381.136,577.008 382.288,581.808C383.44,586.608 383.44,590.16 382.288,592.464C380.368,594.768 379.696,597.36 380.272,600.24C380.848,603.12 381.52,606.096 382.288,609.168C383.056,612.24 383.44,615.216 383.44,618.096C383.44,620.976 382.096,623.568 379.408,625.872C368.272,635.856 358.384,645.072 349.744,653.52C341.104,661.968 330.256,669.648 317.2,676.56C317.584,678.096 316.336,679.44 313.456,680.592C310.576,681.744 309.328,683.28 309.712,685.2C310.864,689.808 308.944,693.744 303.952,697.008C298.96,700.272 293.392,703.44 287.248,706.512C281.104,709.584 275.536,712.848 270.544,716.304C265.552,719.76 263.632,724.176 264.784,729.552C265.552,732.624 266.8,734.928 268.528,736.464C270.256,738 271.504,740.88 272.272,745.104C273.04,747.792 273.808,750.288 274.576,752.592C275.344,754.896 276.112,757.584 276.88,760.656C277.648,762.96 278.704,764.88 280.048,766.416C281.392,767.952 282.448,770.256 283.216,773.328C284.368,778.704 282.064,783.12 276.304,786.576C270.544,790.032 264.784,792.336 259.024,793.488C253.648,794.64 248.656,794.448 244.048,792.912C239.44,791.376 235.216,788.976 231.376,785.712C227.536,782.448 224.272,778.512 221.584,773.904C218.896,769.296 216.976,764.496 215.824,759.504C214.288,751.824 215.248,745.104 218.704,739.344C222.16,733.584 226.576,728.112 231.952,722.928C237.328,717.744 243.088,712.56 249.232,707.376C255.376,702.192 260.368,696.336 264.208,689.808C267.664,684.816 270.64,680.976 273.136,678.288C275.632,675.6 278.224,673.2 280.912,671.088C283.6,668.976 286.576,666.864 289.84,664.752C293.104,662.64 297.04,659.856 301.648,656.4C306.256,653.328 310,648.528 312.88,642C315.76,635.472 320.08,630.672 325.84,627.6C331.6,624.144 334.96,619.632 335.92,614.064C336.88,608.496 336.496,602.928 334.768,597.36C333.04,591.792 330.16,586.8 326.128,582.384C322.096,577.968 317.968,575.184 313.744,574.032C310.288,574.416 307.312,573.84 304.816,572.304C302.32,570.768 299.824,569.04 297.328,567.12C294.832,565.2 292.336,563.376 289.84,561.648C287.344,559.92 284.368,558.864 280.912,558.48C270.16,557.712 261.424,559.632 254.704,564.24C247.984,568.848 242.32,574.128 237.712,580.08C233.104,586.032 229.36,591.408 226.48,596.208C223.6,601.008 220.432,603.216 216.976,602.832ZM174.928,890.256C174.928,884.112 176.848,878.256 180.688,872.688C184.528,867.12 189.04,862.224 194.224,858C199.408,853.776 204.688,850.32 210.064,847.632C215.44,844.944 219.664,843.6 222.736,843.6C226.576,843.6 229.744,844.464 232.24,846.192C234.736,847.92 237.136,849.936 239.44,852.24C241.744,854.544 244.144,857.136 246.64,860.016C249.136,862.896 251.92,865.488 254.992,867.792C258.064,870.096 261.52,872.112 265.36,873.84C269.2,875.568 271.12,878.736 271.12,883.344C271.12,888.336 270.16,892.464 268.24,895.728C266.32,898.992 263.728,901.872 260.464,904.368C257.2,906.864 253.648,909.36 249.808,911.856C245.968,914.352 242.32,917.136 238.864,920.208C236.176,922.128 234.064,924.72 232.528,927.984C230.992,931.248 229.456,934.32 227.92,937.2C226.384,940.08 224.56,942.576 222.448,944.688C220.336,946.8 217.36,947.856 213.52,947.856C210.064,947.856 207.28,946.8 205.168,944.688C203.056,942.576 201.424,939.792 200.272,936.336C199.12,932.88 198.064,929.04 197.104,924.816C196.144,920.592 195.088,916.368 193.936,912.144C193.552,910.224 192.304,908.496 190.192,906.96C188.08,905.424 185.872,903.792 183.568,902.064C181.264,900.336 179.248,898.512 177.52,896.592C175.792,894.672 174.928,892.56 174.928,890.256Z" style="fill:rgb(50,50,50);fill-rule:nonzero;"/>
    </g>
</svg>
